<svg id="Layer_1" data-name="Layer 1" xmlns="http://www.w3.org/2000/svg" viewBox="0 0 914.36 213.37"><title>g-w-logo</title><path d="M228.79,62.45a65.34,65.34,0,0,0-87.67-4.28c-3,2.44-3.63,3.16-17.18,16.73-13.43-13.45-14.19-14.28-17.17-16.72A65.33,65.33,0,0,0,19.1,154.84c29.27,29.27,99,99.06,99.6,99.63a7.31,7.31,0,0,0,10.57-.09c.9-.87,5.91-5.89,10.85-10.83,11.95-12,36.81-36.86,88.67-88.71a65.43,65.43,0,0,0,0-92.39ZM29.37,144.57A50.8,50.8,0,0,1,97.55,69.4c2.32,1.91,2.5,2.14,16.12,15.78l-33.61,33.6a7.28,7.28,0,0,0,0,10.28l9.49,9.48a21.23,21.23,0,0,0,30,0l19-19a6.72,6.72,0,0,1,9.5,0l43.05,42.9a6.62,6.62,0,0,1,.3,9.19,6.43,6.43,0,0,1-9.22.09l-31.82-31.67a7.26,7.26,0,1,0-10.24,10.3L171.93,182a6.43,6.43,0,1,1-9.11,9.08L131,159.45a7.27,7.27,0,0,0-10.25,10.3l31.81,31.66a6.44,6.44,0,0,1,0,9.1,7.14,7.14,0,0,1-8.87.6A20.75,20.75,0,0,0,130,204.58a20.94,20.94,0,0,0-19.37-19.37,20.94,20.94,0,0,0-19.37-19.37A21,21,0,0,0,55.5,152.55l-9.07,9.07L29.37,144.57ZM89.7,180.31a6.44,6.44,0,0,1,4.54,11l-9.08,9.08-9.09-9.1,9.08-9.08a6.4,6.4,0,0,1,4.55-1.88Zm19.37,19.37a6.43,6.43,0,0,1,4.54,11l-9.08,9.09-9.1-9.11,9.09-9.08a6.4,6.4,0,0,1,4.55-1.88Zm19.37,19.37A6.44,6.44,0,0,1,133,230l-9.08,9.09-9.1-9.1,9.09-9.09a6.4,6.4,0,0,1,4.55-1.88ZM74.87,171.92,65.8,181l-9.1-9.1,9.07-9.07a6.43,6.43,0,1,1,9.1,9.1Zm143.64-27.36-13.16,13.16a21.21,21.21,0,0,0-4-5.53l-43-42.89a21.26,21.26,0,0,0-30.05,0l-19,19a6.72,6.72,0,0,1-9.5,0l-4.35-4.35c55.63-55.62,52.12-52.27,54.88-54.53a50.8,50.8,0,0,1,68.16,75.17Z" transform="translate(0 -43.32)" style="fill:#61b15a"/><path d="M345.33,160.34a47.48,47.48,0,0,1-13.74-1.8,20.49,20.49,0,0,1-10-6.6q-4-4.8-6.06-13.68t-2-23.28q0-13.56,2.1-22.32T321.87,79A21.65,21.65,0,0,1,332,72.14a44.85,44.85,0,0,1,13.68-1.92,85.73,85.73,0,0,1,10.26.6q5,.6,9.24,1.44a74.28,74.28,0,0,1,7.38,1.8v11.4a52.31,52.31,0,0,0-5.76-.9q-3.72-.42-8.4-.72t-9.72-.3a30.86,30.86,0,0,0-9.42,1.26,12.15,12.15,0,0,0-6.3,4.62q-2.4,3.36-3.48,9.6a98.39,98.39,0,0,0-1.08,16.2,103.1,103.1,0,0,0,1,16.08,25.45,25.45,0,0,0,3.24,9.66,11.48,11.48,0,0,0,6.12,4.74,30.9,30.9,0,0,0,9.78,1.32q9,0,14.76-.42t9.24-.9v11.4a71,71,0,0,1-7.62,1.68c-2.84.48-5.88.85-9.12,1.14S349.09,160.34,345.33,160.34Z" transform="translate(0 -43.32)" style="fill:#fff"/><path d="M385.17,159.62V68.18h14.88V102a45.9,45.9,0,0,1,9.66-5.34,30.39,30.39,0,0,1,11.94-2.46q7.08,0,11.46,2.88a16.37,16.37,0,0,1,6.36,8,31.81,31.81,0,0,1,2,11.58v43H426.57V118.46a12.14,12.14,0,0,0-1.32-5.82,8.78,8.78,0,0,0-3.72-3.72,12,12,0,0,0-5.64-1.26,23.72,23.72,0,0,0-5.76.66,26,26,0,0,0-5.1,1.86,56.73,56.73,0,0,0-5,2.76v46.68Z" transform="translate(0 -43.32)" style="fill:#fff"/><path d="M469.65,160.34A16.4,16.4,0,0,1,457.89,156q-4.56-4.32-4.56-11.88v-5.4a15.69,15.69,0,0,1,5.1-12.12q5.1-4.68,15.66-4.68h18.36V116.3a12,12,0,0,0-1.2-5.64,7.5,7.5,0,0,0-4.32-3.42q-3.12-1.14-9.48-1.14H458V97.46a93.86,93.86,0,0,1,10.44-2.1,97.81,97.81,0,0,1,14.28-.9,38.28,38.28,0,0,1,13.44,1.86,15.65,15.65,0,0,1,8.34,6.54q2.82,4.56,2.82,12.48v44.28H495.69l-2.52-7a19.92,19.92,0,0,1-3,1.92,58.65,58.65,0,0,1-5.4,2.58,42.73,42.73,0,0,1-7.14,2.28A35.37,35.37,0,0,1,469.65,160.34Zm7.2-10.44a17.26,17.26,0,0,0,3.54-.42q2-.42,4-1t3.78-1.08q1.74-.54,2.88-1t1.38-.6V129l-13.92.72q-5.52.48-8,2.88a8.48,8.48,0,0,0-2.46,6.36v2.64a8.51,8.51,0,0,0,1.26,4.86,6.56,6.56,0,0,0,3.24,2.58A14.65,14.65,0,0,0,476.85,149.9Z" transform="translate(0 -43.32)" style="fill:#fff"/><path d="M522.09,159.62V95.3h11.52L537,105.62a41.79,41.79,0,0,1,8.52-7.92,19.12,19.12,0,0,1,11.16-3.24,22.27,22.27,0,0,1,2.76.18,16.18,16.18,0,0,1,2.64.54V110.3q-1.68-.24-3.6-.36t-3.72-.12a25.58,25.58,0,0,0-6.78.84,19.83,19.83,0,0,0-5.7,2.58,34,34,0,0,0-5.28,4.38v42Z" transform="translate(0 -43.32)" style="fill:#fff"/><path d="M574.29,85.1q-2.28,0-2.28-2.16V72q0-2.4,2.28-2.4h11.28a1.9,1.9,0,0,1,1.62.72,2.72,2.72,0,0,1,.54,1.68V82.94a1.91,1.91,0,0,1-2.16,2.16Zm-1.92,74.52V95.3h14.88v64.32Z" transform="translate(0 -43.32)" style="fill:#fff"/><path d="M625.89,159.62a26.71,26.71,0,0,1-11.4-2.1,12.63,12.63,0,0,1-6.42-7q-2-4.92-1.86-13l.48-30.24H596.61V97.7l10.56-2.4,2.16-18H621v18h16.32v12H621v30.12a17.63,17.63,0,0,0,.6,5.1,7.12,7.12,0,0,0,1.74,3.12,6.66,6.66,0,0,0,2.46,1.62,10.62,10.62,0,0,0,2.76.6l8,.84v10.92Z" transform="translate(0 -43.32)" style="fill:#fff"/><path d="M667.41,188.06l7.44-28.44a19.43,19.43,0,0,1-8.46-1.8,16.85,16.85,0,0,1-6.42-5.4,29.85,29.85,0,0,1-4.32-9.24L642.45,95.3h15.36l11.64,44.88a11.73,11.73,0,0,0,2,4.2,8.41,8.41,0,0,0,2.4,2.1,6.05,6.05,0,0,0,2.22.78c.67.08,1.14.12,1.38.12L690.81,95.3h15.12l-20.64,80.88-5.76,11.88Z" transform="translate(0 -43.32)" style="fill:#fff"/><path d="M715.28,159.62V68.18h14.89V102a45.56,45.56,0,0,1,9.65-5.34,30.39,30.39,0,0,1,11.94-2.46q7.08,0,11.46,2.88a16.37,16.37,0,0,1,6.36,8,31.81,31.81,0,0,1,2,11.58v43H756.68V118.46a12.14,12.14,0,0,0-1.32-5.82,8.78,8.78,0,0,0-3.72-3.72,11.94,11.94,0,0,0-5.64-1.26,23.72,23.72,0,0,0-5.76.66,26,26,0,0,0-5.1,1.86,55.19,55.19,0,0,0-5,2.76v46.68Z" transform="translate(0 -43.32)" style="fill:#fff"/><path d="M805,160.34q-8.88,0-13.8-5t-4.92-14.58V95.3H801.2v41.16q0,6.36,2.94,8.52a13.21,13.21,0,0,0,8,2.16,25.64,25.64,0,0,0,8.16-1.32,27.4,27.4,0,0,0,7.44-3.84V95.3H842.6v64.32H830.48l-2.76-6.72a61.23,61.23,0,0,1-10.38,5.16A33.42,33.42,0,0,1,805,160.34Z" transform="translate(0 -43.32)" style="fill:#fff"/><path d="M892.16,160.34a28.34,28.34,0,0,1-7.86-1,30,30,0,0,1-6.42-2.64q-2.88-1.62-5.4-3.3L870,159.62H857.6V68.06h14.88v32.16a54.17,54.17,0,0,1,9.3-4,30.71,30.71,0,0,1,9.66-1.74q8.16,0,13.2,3.36T912,108.56q2.34,7.38,2.34,19.5A58.09,58.09,0,0,1,912,145.82q-2.34,7.2-7.2,10.86T892.16,160.34Zm-5.4-12.12a11.26,11.26,0,0,0,6.78-2,13,13,0,0,0,4.38-6.6,38.91,38.91,0,0,0,1.56-12.24q0-9.12-1.68-13.56t-4.56-5.88a14.29,14.29,0,0,0-6.48-1.44,22.42,22.42,0,0,0-7.68,1.26,49.3,49.3,0,0,0-6.6,2.94v33.6a49.64,49.64,0,0,0,6.3,2.7A23.69,23.69,0,0,0,886.76,148.22Z" transform="translate(0 -43.32)" style="fill:#fff"/><path d="M325.42,234.8c-.7,0-1.41,0-2.14-.05s-1.48-.1-2.24-.18-1.47-.18-2.14-.29-1.28-.24-1.83-.38v-4.21c.72.07,1.53.13,2.44.18s1.86.08,2.85.11l2.81,0a10.68,10.68,0,0,0,2.35-.23,2.91,2.91,0,0,0,1.53-.83,2.35,2.35,0,0,0,.54-1.64v-1a2.32,2.32,0,0,0-.7-1.82,2.89,2.89,0,0,0-2-.63h-2.26a9,9,0,0,1-5.85-1.67q-2-1.68-2-5.71v-1.29c0-2.6.75-4.49,2.23-5.69a10,10,0,0,1,6.38-1.8c1,0,2,.05,2.93.14s1.91.21,2.81.34,1.67.27,2.32.42v4.21l-3.69-.22c-1.36-.07-2.61-.1-3.76-.1a9,9,0,0,0-2.18.23,2.57,2.57,0,0,0-1.46.88,3,3,0,0,0-.5,1.84v.72a2.37,2.37,0,0,0,.79,2,3.77,3.77,0,0,0,2.34.62h2.63a8,8,0,0,1,4,.88,5.71,5.71,0,0,1,2.34,2.43,7.86,7.86,0,0,1,.77,3.53v1.51A8.26,8.26,0,0,1,333.5,232a5.83,5.83,0,0,1-3.24,2.25A17.86,17.86,0,0,1,325.42,234.8Z" transform="translate(0 -43.32)" style="fill:#f2f2f2"/><path d="M338.34,243.12V215.25h4.47l.86,1.84a14.76,14.76,0,0,1,1.51-1,8.61,8.61,0,0,1,1.8-.79,6.92,6.92,0,0,1,2-.31,6.51,6.51,0,0,1,3.08.69,5.42,5.42,0,0,1,2.14,2,9.38,9.38,0,0,1,1.23,3.15,23,23,0,0,1-.22,9.48,6.32,6.32,0,0,1-2.1,3.41,6.54,6.54,0,0,1-4.13,1.17,12.34,12.34,0,0,1-2.79-.33,10.57,10.57,0,0,1-2.57-.93v9.54Zm9-12.68a3,3,0,0,0,1.58-.45,3.09,3.09,0,0,0,1.21-1.63,10.15,10.15,0,0,0,.45-3.42,11.06,11.06,0,0,0-.42-3.41,3.43,3.43,0,0,0-1.13-1.76,2.8,2.8,0,0,0-1.69-.52,5.71,5.71,0,0,0-2.06.36,12.7,12.7,0,0,0-1.58.72v9.18a6.35,6.35,0,0,0,1.69.68A7.67,7.67,0,0,0,347.31,230.44Z" transform="translate(0 -43.32)" style="fill:#f2f2f2"/><path d="M359.4,234.58V215.25h4.11l1.22,2.95a11.45,11.45,0,0,1,2.36-2.26,5.16,5.16,0,0,1,3.11-.94,7.32,7.32,0,0,1,.81,0,3.73,3.73,0,0,1,.78.14v5.47q-.54-.08-1.14-.12a11.13,11.13,0,0,0-1.13-.06,6.88,6.88,0,0,0-1.89.24,5.41,5.41,0,0,0-1.55.68,6.58,6.58,0,0,0-1.35,1.17v12Z" transform="translate(0 -43.32)" style="fill:#f2f2f2"/><path d="M382.77,234.76a12.91,12.91,0,0,1-5.12-.84,5.19,5.19,0,0,1-2.75-3,16.72,16.72,0,0,1-.85-6,18.31,18.31,0,0,1,.8-6.09,5,5,0,0,1,2.66-3,12.23,12.23,0,0,1,5.07-.87,15.1,15.1,0,0,1,4.61.58,4.21,4.21,0,0,1,2.51,2,8.77,8.77,0,0,1,.77,4.06,5.42,5.42,0,0,1-.77,3.08,4.22,4.22,0,0,1-2.18,1.62,10,10,0,0,1-3.31.49h-4.86a6.89,6.89,0,0,0,.44,2.36,2.39,2.39,0,0,0,1.41,1.26,9.06,9.06,0,0,0,3,.37h5.65v3.14c-.93.19-2,.37-3.08.55A25.25,25.25,0,0,1,382.77,234.76Zm-3.5-11.12h4.4a2.39,2.39,0,0,0,1.58-.43,2,2,0,0,0,.5-1.55,3.6,3.6,0,0,0-.32-1.67,1.86,1.86,0,0,0-1-.9,5.14,5.14,0,0,0-1.84-.27,3.86,3.86,0,0,0-1.94.41,2.38,2.38,0,0,0-1,1.46A10.23,10.23,0,0,0,379.27,223.64Z" transform="translate(0 -43.32)" style="fill:#f2f2f2"/><path d="M398.06,234.8a4.94,4.94,0,0,1-3.56-1.3,4.72,4.72,0,0,1-1.37-3.6v-1.72a4.7,4.7,0,0,1,1.55-3.62,6.94,6.94,0,0,1,4.82-1.42h4.94V221.8a3,3,0,0,0-.33-1.49,1.9,1.9,0,0,0-1.2-.86,9.93,9.93,0,0,0-2.69-.27h-5.79v-3.1a24.88,24.88,0,0,1,7.74-1.08,12.79,12.79,0,0,1,4.12.58,4.69,4.69,0,0,1,2.59,2,7.24,7.24,0,0,1,.88,3.88v13.14h-4.21l-.86-2.05a3.73,3.73,0,0,1-.87.65,12.25,12.25,0,0,1-3.47,1.37A10,10,0,0,1,398.06,234.8Zm2.7-3.71a4.17,4.17,0,0,0,.81-.09l.94-.21.9-.26c.28-.08.5-.16.68-.23l.35-.14v-4.5l-3.24.21a3.34,3.34,0,0,0-2.07.72,2.13,2.13,0,0,0-.67,1.66V229a2.09,2.09,0,0,0,.31,1.19,1.66,1.66,0,0,0,.82.66A3.13,3.13,0,0,0,400.76,231.09Z" transform="translate(0 -43.32)" style="fill:#f2f2f2"/><path d="M420.1,234.8a7.19,7.19,0,0,1-3.82-1,5.76,5.76,0,0,1-2.32-3.1,16.83,16.83,0,0,1-.78-5.63,21.15,21.15,0,0,1,.67-5.84A5.64,5.64,0,0,1,416.1,216a7.83,7.83,0,0,1,4.36-1,12.8,12.8,0,0,1,2.62.27,17.26,17.26,0,0,1,2.31.63v-8.74h5.36v27.46h-4.5l-.86-1.83a7,7,0,0,1-1.5,1,9,9,0,0,1-1.85.74A7.21,7.21,0,0,1,420.1,234.8Zm1.87-4.28a5.14,5.14,0,0,0,2-.36,9.93,9.93,0,0,0,1.46-.72v-9.72l-1.51-.51a5.55,5.55,0,0,0-1.7-.25,4.3,4.3,0,0,0-2.14.47,2.74,2.74,0,0,0-1.17,1.74,14.5,14.5,0,0,0-.36,3.69,14.18,14.18,0,0,0,.34,3.48,2.78,2.78,0,0,0,1.1,1.71A3.85,3.85,0,0,0,422,230.52Z" transform="translate(0 -43.32)" style="fill:#f2f2f2"/><path d="M450.08,243.12l2.09-8.54a6.22,6.22,0,0,1-2.84-.61,5.52,5.52,0,0,1-2-1.74,8.47,8.47,0,0,1-1.24-2.83l-3.63-14.15H448L451,228.32a3.21,3.21,0,0,0,.47,1.08,1.76,1.76,0,0,0,.61.56,2.11,2.11,0,0,0,.59.21,2.08,2.08,0,0,0,.42.06l3.49-15H462l-5.76,24.3-1.73,3.57Z" transform="translate(0 -43.32)" style="fill:#f2f2f2"/><path d="M472.8,234.76a15.1,15.1,0,0,1-4.07-.48,5.87,5.87,0,0,1-2.75-1.64,6.92,6.92,0,0,1-1.55-3.06,19.6,19.6,0,0,1-.49-4.72,20.54,20.54,0,0,1,.49-4.87,6.49,6.49,0,0,1,1.55-3,5.84,5.84,0,0,1,2.77-1.55,16,16,0,0,1,4.05-.45,15.57,15.57,0,0,1,4.1.47,6,6,0,0,1,2.76,1.57,6.6,6.6,0,0,1,1.55,3,24.74,24.74,0,0,1,0,9.65,6.6,6.6,0,0,1-1.51,3A5.73,5.73,0,0,1,477,234.3,16.09,16.09,0,0,1,472.8,234.76Zm0-4.24a6.41,6.41,0,0,0,1.64-.18,2,2,0,0,0,1.08-.74,4.38,4.38,0,0,0,.63-1.71,22,22,0,0,0,0-6.07,4.39,4.39,0,0,0-.63-1.69,2,2,0,0,0-1.08-.74,6.41,6.41,0,0,0-1.64-.18,6.19,6.19,0,0,0-1.6.18,2,2,0,0,0-1.1.74,3.83,3.83,0,0,0-.63,1.69,23.13,23.13,0,0,0,0,6.07,3.83,3.83,0,0,0,.63,1.71,2,2,0,0,0,1.1.74A6.19,6.19,0,0,0,472.8,230.52Z" transform="translate(0 -43.32)" style="fill:#f2f2f2"/><path d="M490.69,234.8a5.4,5.4,0,0,1-4.07-1.53,6,6,0,0,1-1.47-4.34V215.25h5.32v12.1a2.55,2.55,0,0,0,.78,2.18,3.39,3.39,0,0,0,2,.55,6.16,6.16,0,0,0,2.07-.37,6.88,6.88,0,0,0,1.89-1V215.25h5.37v19.33h-4.43l-.94-2a15.21,15.21,0,0,1-3,1.53A9.47,9.47,0,0,1,490.69,234.8Z" transform="translate(0 -43.32)" style="fill:#f2f2f2"/><path d="M506.64,234.58V215.25h4.1L512,218.2a11.21,11.21,0,0,1,2.36-2.26,5.16,5.16,0,0,1,3.11-.94,7.57,7.57,0,0,1,.81,0,3.75,3.75,0,0,1,.77.14v5.47c-.36-.05-.73-.09-1.13-.12a11.32,11.32,0,0,0-1.14-.06,6.86,6.86,0,0,0-1.88.24,5.41,5.41,0,0,0-1.55.68,6.58,6.58,0,0,0-1.35,1.17v12Z" transform="translate(0 -43.32)" style="fill:#f2f2f2"/><path d="M537.2,234.66a7.71,7.71,0,0,1-3.4-.67,4.2,4.2,0,0,1-2-2.05,8.55,8.55,0,0,1-.65-3.58V207.12h5.33v20.44a5.26,5.26,0,0,0,.22,1.71,1.66,1.66,0,0,0,.66.92,2.94,2.94,0,0,0,1.14.4l1.47.21v3.86Z" transform="translate(0 -43.32)" style="fill:#f2f2f2"/><path d="M550.7,234.76a15.1,15.1,0,0,1-4.07-.48,5.92,5.92,0,0,1-2.75-1.64,7,7,0,0,1-1.55-3.06,19.65,19.65,0,0,1-.48-4.72,20.6,20.6,0,0,1,.48-4.87,6.59,6.59,0,0,1,1.55-3,5.84,5.84,0,0,1,2.77-1.55,16,16,0,0,1,4.05-.45,15.7,15.7,0,0,1,4.11.47,6,6,0,0,1,2.75,1.57,6.6,6.6,0,0,1,1.55,3,20.5,20.5,0,0,1,.48,4.84,20.94,20.94,0,0,1-.46,4.81,6.7,6.7,0,0,1-1.52,3,5.73,5.73,0,0,1-2.75,1.59A16.09,16.09,0,0,1,550.7,234.76Zm0-4.24a6.36,6.36,0,0,0,1.64-.18,2,2,0,0,0,1.08-.74,4.08,4.08,0,0,0,.63-1.71,21,21,0,0,0,0-6.07,4.09,4.09,0,0,0-.63-1.69,2,2,0,0,0-1.08-.74,6.36,6.36,0,0,0-1.64-.18,6.19,6.19,0,0,0-1.6.18,2.07,2.07,0,0,0-1.1.74,3.83,3.83,0,0,0-.63,1.69,23.13,23.13,0,0,0,0,6.07,3.83,3.83,0,0,0,.63,1.71,2.07,2.07,0,0,0,1.1.74A6.19,6.19,0,0,0,550.7,230.52Z" transform="translate(0 -43.32)" style="fill:#f2f2f2"/><path d="M567.26,234.58l-6.48-19.33h5.51l4.18,14.4,4.28-14.4h5.44l-6.77,19.33Z" transform="translate(0 -43.32)" style="fill:#f2f2f2"/><path d="M590.12,234.76a12.89,12.89,0,0,1-5.11-.84,5.19,5.19,0,0,1-2.75-3,16.72,16.72,0,0,1-.85-6,18.35,18.35,0,0,1,.79-6.09,5.06,5.06,0,0,1,2.67-3,12.2,12.2,0,0,1,5.07-.87,15.1,15.1,0,0,1,4.61.58,4.19,4.19,0,0,1,2.5,2,8.63,8.63,0,0,1,.78,4.06,5.34,5.34,0,0,1-.78,3.08,4.16,4.16,0,0,1-2.17,1.62,10.05,10.05,0,0,1-3.32.49H586.7a7.11,7.11,0,0,0,.45,2.36,2.34,2.34,0,0,0,1.41,1.26,9.06,9.06,0,0,0,3,.37h5.65v3.14c-.94.19-2,.37-3.08.55A25.39,25.39,0,0,1,590.12,234.76Zm-3.49-11.12H591a2.42,2.42,0,0,0,1.59-.43,2,2,0,0,0,.5-1.55,3.73,3.73,0,0,0-.32-1.67,1.9,1.9,0,0,0-1-.9,5.14,5.14,0,0,0-1.84-.27,3.86,3.86,0,0,0-1.94.41,2.43,2.43,0,0,0-1,1.46A10.66,10.66,0,0,0,586.63,223.64Z" transform="translate(0 -43.32)" style="fill:#f2f2f2"/><path d="M621.55,234.8a8.33,8.33,0,0,1-2.27-.29,8.07,8.07,0,0,1-1.82-.75,16.87,16.87,0,0,1-1.53-1l-.86,1.83h-4.46V207.12h5.32v9.46a19.17,19.17,0,0,1,2.6-1.11,8.27,8.27,0,0,1,2.77-.51,6.82,6.82,0,0,1,4,1,5.9,5.9,0,0,1,2.17,3.26,20.16,20.16,0,0,1,.69,5.85,18,18,0,0,1-.7,5.4,5.63,5.63,0,0,1-5.89,4.28Zm-2-4.36a3,3,0,0,0,1.67-.48,3.21,3.21,0,0,0,1.16-1.71,11.23,11.23,0,0,0,.41-3.39,11.07,11.07,0,0,0-.45-3.69,2.72,2.72,0,0,0-1.19-1.54,3.34,3.34,0,0,0-1.6-.38,5.64,5.64,0,0,0-2,.34,12,12,0,0,0-1.64.74v9.18a11.1,11.1,0,0,0,1.57.65A6.78,6.78,0,0,0,619.57,230.44Z" transform="translate(0 -43.32)" style="fill:#f2f2f2"/><path d="M637,243.12l2.09-8.54a6.22,6.22,0,0,1-2.84-.61,5.52,5.52,0,0,1-2-1.74A8.47,8.47,0,0,1,633,229.4l-3.63-14.15h5.54l3.06,13.07a3.21,3.21,0,0,0,.47,1.08,1.76,1.76,0,0,0,.61.56,2.11,2.11,0,0,0,.59.21,2.08,2.08,0,0,0,.42.06l3.49-15h5.4l-5.76,24.3-1.73,3.57Z" transform="translate(0 -43.32)" style="fill:#f2f2f2"/><path d="M660.72,234.58V207.15H666v10.08a11.61,11.61,0,0,1,2.72-1.58,8.63,8.63,0,0,1,3.44-.72,6.24,6.24,0,0,1,3.49.86,4.87,4.87,0,0,1,1.88,2.41,10.46,10.46,0,0,1,.57,3.6v12.78h-5.33V222.49a3,3,0,0,0-.36-1.55,2.32,2.32,0,0,0-1-.92,3.25,3.25,0,0,0-1.44-.3,5.47,5.47,0,0,0-1.46.19,7.68,7.68,0,0,0-1.33.53,9.89,9.89,0,0,0-1.21.72v13.42Z" transform="translate(0 -43.32)" style="fill:#f2f2f2"/><path d="M690.27,234.76a12.89,12.89,0,0,1-5.11-.84,5.19,5.19,0,0,1-2.75-3,16.72,16.72,0,0,1-.85-6,18.62,18.62,0,0,1,.79-6.09,5.06,5.06,0,0,1,2.67-3,12.2,12.2,0,0,1,5.07-.87,15.1,15.1,0,0,1,4.61.58,4.19,4.19,0,0,1,2.5,2,8.63,8.63,0,0,1,.78,4.06,5.34,5.34,0,0,1-.78,3.08,4.16,4.16,0,0,1-2.17,1.62,10.05,10.05,0,0,1-3.32.49h-4.86a7.11,7.11,0,0,0,.45,2.36,2.34,2.34,0,0,0,1.41,1.26,9.06,9.06,0,0,0,3,.37h5.65v3.14c-.94.19-2,.37-3.08.55A25.39,25.39,0,0,1,690.27,234.76Zm-3.49-11.12h4.39a2.42,2.42,0,0,0,1.59-.43,2,2,0,0,0,.5-1.55,3.73,3.73,0,0,0-.32-1.67,1.9,1.9,0,0,0-1-.9,5.14,5.14,0,0,0-1.84-.27,3.86,3.86,0,0,0-1.94.41,2.43,2.43,0,0,0-1,1.46A10.66,10.66,0,0,0,686.78,223.64Z" transform="translate(0 -43.32)" style="fill:#f2f2f2"/><path d="M707.52,234.66a7.76,7.76,0,0,1-3.41-.67,4.18,4.18,0,0,1-2-2.05,8.4,8.4,0,0,1-.65-3.58V207.12h5.33v20.44a5.59,5.59,0,0,0,.21,1.71,1.72,1.72,0,0,0,.67.92,3,3,0,0,0,1.13.4l1.48.21v3.86Z" transform="translate(0 -43.32)" style="fill:#f2f2f2"/><path d="M712.74,243.12V215.25h4.46l.86,1.84a13.89,13.89,0,0,1,1.52-1,8.61,8.61,0,0,1,1.8-.79,6.87,6.87,0,0,1,2-.31,6.57,6.57,0,0,1,3.08.69,5.49,5.49,0,0,1,2.14,2,9.38,9.38,0,0,1,1.22,3.15,19.51,19.51,0,0,1,.4,4.16,20.6,20.6,0,0,1-.61,5.32,6.33,6.33,0,0,1-2.11,3.41,6.53,6.53,0,0,1-4.12,1.17,12.28,12.28,0,0,1-2.79-.33,10.49,10.49,0,0,1-2.58-.93v9.54Zm9-12.68a2.86,2.86,0,0,0,2.79-2.08,10.15,10.15,0,0,0,.45-3.42,11.42,11.42,0,0,0-.41-3.41,3.51,3.51,0,0,0-1.14-1.76,2.78,2.78,0,0,0-1.69-.52,5.66,5.66,0,0,0-2.05.36,12.9,12.9,0,0,0-1.59.72v9.18a6.42,6.42,0,0,0,1.7.68A7.54,7.54,0,0,0,721.7,230.44Z" transform="translate(0 -43.32)" style="fill:#f2f2f2"/><path d="M734.44,212.41q-.75,0-.75-.72v-3.53a.67.67,0,0,1,.75-.76h4.11a.64.64,0,0,1,.5.22.8.8,0,0,1,.18.54v3.53c0,.48-.23.72-.68.72Zm-.65,22.17V215.25h5.33v19.33Z" transform="translate(0 -43.32)" style="fill:#f2f2f2"/><path d="M743.23,234.58V215.25h4.39l.93,2a11.09,11.09,0,0,1,2.72-1.6,8.45,8.45,0,0,1,3.37-.7,6.22,6.22,0,0,1,3.67.93,5,5,0,0,1,1.82,2.51,10.85,10.85,0,0,1,.52,3.47v12.74h-5.33V222.52A3.08,3.08,0,0,0,755,221a2.39,2.39,0,0,0-1-.94,3.08,3.08,0,0,0-1.48-.32,5.9,5.9,0,0,0-1.46.18,6.27,6.27,0,0,0-1.33.5,9.06,9.06,0,0,0-1.21.76v13.42Z" transform="translate(0 -43.32)" style="fill:#f2f2f2"/><path d="M769.65,243.51a9.17,9.17,0,0,1-3.26-.54,5.17,5.17,0,0,1-2.25-1.56,3.94,3.94,0,0,1-.83-2.54v-.58a4.07,4.07,0,0,1,.89-2.64,5.55,5.55,0,0,1,2.28-1.68,7.88,7.88,0,0,1,3-.57l1.58,1.65a3.84,3.84,0,0,0-1.4.25,2.1,2.1,0,0,0-.95.74,2.06,2.06,0,0,0-.35,1.21v.39a1.84,1.84,0,0,0,.73,1.59,3.34,3.34,0,0,0,2,.54h3.67a4,4,0,0,0,2.14-.52,1.74,1.74,0,0,0,.81-1.57v-.58a1.84,1.84,0,0,0-.31-1.09,2,2,0,0,0-.9-.71,4.32,4.32,0,0,0-1.6-.25h-4.28a7.9,7.9,0,0,1-4.81-1.2,3.78,3.78,0,0,1-.72-5.44,4.11,4.11,0,0,1,2.36-1.31,5.66,5.66,0,0,1-1.84-1.5,5.75,5.75,0,0,1-1-1.91,7.9,7.9,0,0,1-.29-2.14,6.53,6.53,0,0,1,.89-3.53,5.17,5.17,0,0,1,2.66-2.08,12.52,12.52,0,0,1,4.48-.69H782.9v2.92l-2.95.54a7.66,7.66,0,0,1,.64.84,4.62,4.62,0,0,1,.56,1.26,6.63,6.63,0,0,1,.24,1.93,6.32,6.32,0,0,1-.71,3,5,5,0,0,1-2.23,2.12,8.82,8.82,0,0,1-4.05.79H771a3.75,3.75,0,0,0-1.58.29,1,1,0,0,0-.61,1,.84.84,0,0,0,.52.84,2.78,2.78,0,0,0,1.17.24h5.33a11.06,11.06,0,0,1,3.78.57,4.67,4.67,0,0,1,2.37,1.86,6.1,6.1,0,0,1,.83,3.36v.54a5.74,5.74,0,0,1-1.8,4.48c-1.2,1.1-3,1.64-5.54,1.64Zm2.09-18.86h2a3.59,3.59,0,0,0,1.71-.34,1.85,1.85,0,0,0,.83-.94,3.93,3.93,0,0,0,.23-1.39,3.72,3.72,0,0,0-.3-1.62,1.83,1.83,0,0,0-.88-.86,3.63,3.63,0,0,0-1.45-.25h-2a3.08,3.08,0,0,0-2,.59,2.63,2.63,0,0,0-.69,2.07,2.87,2.87,0,0,0,.65,2.07A2.52,2.52,0,0,0,771.74,224.65Z" transform="translate(0 -43.32)" style="fill:#f2f2f2"/><path d="M803.17,234.76a15,15,0,0,1-4.07-.48,5.9,5.9,0,0,1-2.76-1.64,7,7,0,0,1-1.54-3.06,19.1,19.1,0,0,1-.49-4.72,20,20,0,0,1,.49-4.87,6.58,6.58,0,0,1,1.54-3,5.87,5.87,0,0,1,2.78-1.55,16,16,0,0,1,4-.45,15.68,15.68,0,0,1,4.1.47A5.88,5.88,0,0,1,810,217a6.5,6.5,0,0,1,1.55,3,19.93,19.93,0,0,1,.49,4.84,20.88,20.88,0,0,1-.47,4.81,6.69,6.69,0,0,1-1.51,3,5.81,5.81,0,0,1-2.76,1.59A16,16,0,0,1,803.17,234.76Zm0-4.24a6.33,6.33,0,0,0,1.63-.18,1.91,1.91,0,0,0,1.08-.74,4.08,4.08,0,0,0,.63-1.71,21,21,0,0,0,0-6.07,4.09,4.09,0,0,0-.63-1.69,1.91,1.91,0,0,0-1.08-.74,7.38,7.38,0,0,0-3.24,0,2,2,0,0,0-1.09.74,3.83,3.83,0,0,0-.63,1.69,23.13,23.13,0,0,0,0,6.07,3.83,3.83,0,0,0,.63,1.71,2,2,0,0,0,1.09.74A6.27,6.27,0,0,0,803.17,230.52Z" transform="translate(0 -43.32)" style="fill:#f2f2f2"/><path d="M822.93,234.58a8.67,8.67,0,0,1-3.62-.64,4,4,0,0,1-2-2.16,10.63,10.63,0,0,1-.54-4.07l.18-8.17h-3v-3.42l3.2-.87.72-5.4h4.22v5.4h4.53v4.29h-4.53v8.13a4.73,4.73,0,0,0,.14,1.3,2.2,2.2,0,0,0,.41.81,1.74,1.74,0,0,0,.63.45,3.16,3.16,0,0,0,.72.18l2.45.21v4Z" transform="translate(0 -43.32)" style="fill:#f2f2f2"/><path d="M829.59,234.58V207.15h5.33v10.08a11.21,11.21,0,0,1,2.72-1.58,8.58,8.58,0,0,1,3.43-.72,6.29,6.29,0,0,1,3.5.86,4.91,4.91,0,0,1,1.87,2.41,10.46,10.46,0,0,1,.57,3.6v12.78h-5.32V222.49a3,3,0,0,0-.36-1.55,2.35,2.35,0,0,0-1-.92,3.19,3.19,0,0,0-1.44-.3,5.34,5.34,0,0,0-1.45.19,7.48,7.48,0,0,0-1.34.53,9.08,9.08,0,0,0-1.2.72v13.42Z" transform="translate(0 -43.32)" style="fill:#f2f2f2"/><path d="M859.15,234.76a12.91,12.91,0,0,1-5.12-.84,5.19,5.19,0,0,1-2.75-3,16.72,16.72,0,0,1-.85-6,18.62,18.62,0,0,1,.79-6.09,5.06,5.06,0,0,1,2.67-3A12.23,12.23,0,0,1,859,215a15.1,15.1,0,0,1,4.61.58,4.24,4.24,0,0,1,2.51,2,8.77,8.77,0,0,1,.77,4.06,5.42,5.42,0,0,1-.77,3.08,4.22,4.22,0,0,1-2.18,1.62,10,10,0,0,1-3.32.49h-4.86a7.11,7.11,0,0,0,.45,2.36,2.39,2.39,0,0,0,1.41,1.26,9.06,9.06,0,0,0,3,.37h5.65v3.14c-.94.19-2,.37-3.08.55A25.25,25.25,0,0,1,859.15,234.76Zm-3.5-11.12H860a2.42,2.42,0,0,0,1.59-.43,2,2,0,0,0,.5-1.55,3.6,3.6,0,0,0-.32-1.67,1.86,1.86,0,0,0-1-.9,5.14,5.14,0,0,0-1.84-.27,3.86,3.86,0,0,0-1.94.41,2.38,2.38,0,0,0-1,1.46A10.23,10.23,0,0,0,855.65,223.64Z" transform="translate(0 -43.32)" style="fill:#f2f2f2"/><path d="M870.34,234.58V215.25h4.11l1.22,2.95a11.45,11.45,0,0,1,2.36-2.26,5.16,5.16,0,0,1,3.11-.94,7.44,7.44,0,0,1,.81,0,3.52,3.52,0,0,1,.77.14v5.47c-.35-.05-.73-.09-1.13-.12a11.13,11.13,0,0,0-1.13-.06,6.88,6.88,0,0,0-1.89.24,5.41,5.41,0,0,0-1.55.68,6.58,6.58,0,0,0-1.35,1.17v12Z" transform="translate(0 -43.32)" style="fill:#f2f2f2"/><path d="M892.59,234.8c-.6,0-1.25,0-2-.05s-1.39-.09-2.08-.17-1.35-.16-1.95-.27a9.53,9.53,0,0,1-1.51-.37V230.8h8.57a5.3,5.3,0,0,0,1.24-.12,1.24,1.24,0,0,0,.72-.47,1.73,1.73,0,0,0,.23-1v-.61a1.4,1.4,0,0,0-.46-1.12,2.82,2.82,0,0,0-1.73-.39h-3a8.24,8.24,0,0,1-3-.51,4.33,4.33,0,0,1-2.11-1.65,5.45,5.45,0,0,1-.77-3.1v-1.12a6.14,6.14,0,0,1,.72-3.09,4.47,4.47,0,0,1,2.41-1.91,13.39,13.39,0,0,1,4.64-.65c.79,0,1.64,0,2.54.13s1.75.19,2.56.32a11.45,11.45,0,0,1,1.92.45v3.13h-8.1a3,3,0,0,0-1.58.35,1.38,1.38,0,0,0-.54,1.27v.58a1.46,1.46,0,0,0,.25.95,1.41,1.41,0,0,0,.78.44,5.9,5.9,0,0,0,1.31.12h3.09a5.91,5.91,0,0,1,4.31,1.35,5,5,0,0,1,1.35,3.73v1.73a4.74,4.74,0,0,1-.92,3.07,5,5,0,0,1-2.67,1.62A15.79,15.79,0,0,1,892.59,234.8Z" transform="translate(0 -43.32)" style="fill:#f2f2f2"/><path d="M904.36,234.62a.64.64,0,0,1-.72-.72v-3.67c0-.51.24-.76.72-.76h3.1c.52,0,.79.25.79.76v3.67a.63.63,0,0,1-.24.58,1.07,1.07,0,0,1-.55.14Z" transform="translate(0 -43.32)" style="fill:#f2f2f2"/></svg>